<svg width="20" height="20" viewBox="0 0 20 20" fill="none" xmlns="http://www.w3.org/2000/svg">
<g clip-path="url(#clip0_40_47)">
<path fill-rule="evenodd" clip-rule="evenodd" d="M7.31825 0C6.21488 0.000815494 5.32192 0.896228 5.32273 1.99959C5.32192 3.10296 6.2157 3.99837 7.31906 3.99918H9.31539V2.00041C9.31621 0.897044 8.42243 0.00163099 7.31825 0C7.31906 0 7.31906 0 7.31825 0ZM7.31825 5.33333H1.99633C0.892969 5.33415 -0.000813266 6.22956 2.22865e-06 7.33293C-0.00162876 8.43629 0.892153 9.3317 1.99552 9.33333H7.31825C8.42161 9.33252 9.31539 8.4371 9.31458 7.33374C9.31539 6.22956 8.42161 5.33415 7.31825 5.33333Z" fill="#36C5F0"/>
<path fill-rule="evenodd" clip-rule="evenodd" d="M19.9601 7.33293C19.9609 6.22956 19.0671 5.33415 17.9638 5.33333C16.8604 5.33415 15.9666 6.22956 15.9674 7.33293V9.33333H17.9638C19.0671 9.33252 19.9609 8.4371 19.9601 7.33293ZM14.6374 7.33293V1.99959C14.6382 0.897044 13.7452 0.00163099 12.6418 0C11.5385 0.000815494 10.6447 0.896228 10.6455 1.99959V7.33293C10.6439 8.43629 11.5377 9.3317 12.641 9.33333C13.7444 9.33252 14.6382 8.4371 14.6374 7.33293Z" fill="#2EB67D"/>
<path fill-rule="evenodd" clip-rule="evenodd" d="M12.6409 19.9999C13.7442 19.9991 14.638 19.1037 14.6372 18.0003C14.638 16.897 13.7442 16.0016 12.6409 16.0007H10.6445V18.0003C10.6437 19.1029 11.5375 19.9983 12.6409 19.9999ZM12.6409 14.6658H17.9636C19.067 14.665 19.9607 13.7695 19.9599 12.6662C19.9616 11.5628 19.0678 10.6674 17.9644 10.6658H12.6417C11.5383 10.6666 10.6445 11.562 10.6453 12.6654C10.6445 13.7695 11.5375 14.665 12.6409 14.6658Z" fill="#ECB22E"/>
<path fill-rule="evenodd" clip-rule="evenodd" d="M5.57604e-07 12.6663C-0.000814937 13.7697 0.892967 14.6651 1.99633 14.6659C3.09969 14.6651 3.99348 13.7697 3.99266 12.6663V10.6667H1.99633C0.892967 10.6676 -0.000814937 11.563 5.57604e-07 12.6663ZM5.32273 12.6663V17.9997C5.3211 19.103 6.21488 19.9984 7.31825 20.0001C8.42161 19.9993 9.31539 19.1039 9.31458 18.0005V12.668C9.31621 11.5646 8.42243 10.6692 7.31906 10.6676C6.21488 10.6676 5.32192 11.563 5.32273 12.6663Z" fill="#E01E5A"/>
</g>
<defs>
<clipPath id="clip0_40_47">
<rect width="19.96" height="20" fill="white"/>
</clipPath>
</defs>
</svg>
