<svg width="20" height="3" viewBox="0 0 20 3" fill="none" xmlns="http://www.w3.org/2000/svg">
<g clip-path="url(#clip0_40_36)">
<path d="M5.27294 0.208308C5.80365 0.208308 6.06258 0.469382 6.06258 0.890953C6.06258 1.20767 5.91921 1.39812 5.62603 1.47088C6.01122 1.53508 6.20168 1.74479 6.20168 2.11287C6.20168 2.53016 5.91921 2.81477 5.33714 2.81477H4.26074V0.208308H5.27294ZM4.61811 0.54856V1.32536H5.22586C5.56397 1.32536 5.70307 1.17129 5.70307 0.918772C5.70307 0.666258 5.55327 0.54642 5.22586 0.54642L4.61811 0.54856ZM4.61811 1.64422V2.45526H5.34784C5.69023 2.45526 5.84431 2.33114 5.84431 2.07007C5.84431 1.79187 5.69665 1.64208 5.34142 1.64208L4.61811 1.64422ZM6.78375 0.0692109C6.90572 0.0606511 7.01272 0.152669 7.02128 0.274646V0.306746C7.02128 0.437283 6.91428 0.54428 6.78375 0.54428C6.65321 0.54428 6.54621 0.437283 6.54621 0.306746C6.53765 0.184768 6.62967 0.0777707 6.75165 0.0692109C6.76235 0.067071 6.77305 0.067071 6.78375 0.0692109ZM6.61041 0.831034H6.9528V2.81477H6.61041V0.831034ZM8.25389 2.48094C8.32665 2.4788 8.39727 2.47024 8.46789 2.45312V2.78267C8.39299 2.80407 8.31595 2.81477 8.23891 2.81477C7.81306 2.81477 7.60763 2.5644 7.60763 2.19632V1.14775H7.28664V0.831034H7.60763V0.409463H7.93932V0.831034H8.46789V1.14775H7.93932V2.1899C7.93932 2.36324 8.04204 2.48094 8.25389 2.48094ZM9.87598 2.85329C9.58708 2.85329 9.36453 2.72275 9.24469 2.46382V2.81263H8.9023V0.000732422H9.24683V1.18627C9.37309 0.925192 9.61276 0.790375 9.91664 0.790375C10.4452 0.790375 10.7106 1.23763 10.7106 1.82183C10.7084 2.3825 10.4324 2.85329 9.87598 2.85329ZM9.82462 1.10709C9.51861 1.10709 9.24683 1.30182 9.24683 1.74265V1.90101C9.24683 2.34184 9.49721 2.53658 9.78824 2.53658C10.1734 2.53658 10.3724 2.28192 10.3724 1.82183C10.3682 1.34676 10.1777 1.10709 9.82462 1.10709ZM11.0658 0.831034H11.4082V2.03155C11.4082 2.38892 11.5516 2.54728 11.8768 2.54728C12.1935 2.54728 12.4118 2.33756 12.4118 1.93525V0.831034H12.7542V2.81477H12.4118V2.4895C12.2877 2.71847 12.0459 2.85971 11.7848 2.85543C11.329 2.85543 11.0658 2.53872 11.0658 1.99303V0.831034ZM14.6695 2.76341C14.5496 2.82761 14.3677 2.85329 14.1858 2.85329C13.4797 2.85329 13.148 2.4253 13.148 1.81541C13.148 1.21623 13.4775 0.788235 14.1858 0.788235C14.3485 0.783955 14.5111 0.816054 14.6588 0.886673V1.20339C14.5175 1.13705 14.3635 1.10495 14.2072 1.10923C13.6915 1.10923 13.4818 1.4345 13.4818 1.81969C13.4818 2.20488 13.6958 2.53016 14.2158 2.53016C14.3699 2.53444 14.5218 2.5109 14.6673 2.45954L14.6695 2.76341ZM15.0589 2.81477V0.000732422H15.4013V1.75977L16.2552 0.831034H16.7003L15.7673 1.80471L16.7388 2.81477H16.2744L15.4013 1.88603V2.81477H15.0589ZM17.8687 2.85329C17.1261 2.85329 16.8009 2.4253 16.8009 1.81541C16.8009 1.21623 17.1347 0.788235 17.7382 0.788235C18.3502 0.788235 18.5941 1.21409 18.5941 1.81541V1.96949H17.1454C17.1925 2.3076 17.4108 2.52588 17.8794 2.52588C18.0848 2.52588 18.2903 2.4895 18.4829 2.41888V2.73559C18.3224 2.82333 18.072 2.85329 17.8687 2.85329ZM17.1433 1.6806H18.2496C18.2304 1.31252 18.0634 1.10067 17.721 1.10067C17.3594 1.09853 17.1775 1.33392 17.1411 1.67846V1.6806H17.1433ZM19.7861 2.48094C19.8589 2.4788 19.9295 2.47024 20.0001 2.45312V2.78267C19.9252 2.80407 19.8482 2.81477 19.7711 2.81477C19.3453 2.81477 19.1398 2.5644 19.1398 2.19632V1.14775H18.8188V0.831034H19.1398V0.409463H19.4737V0.831034H20.0022V1.14775H19.4737V2.1899C19.4715 2.36324 19.5742 2.48094 19.7861 2.48094Z" fill="#253858"/>
<path d="M0.092018 0.283203C0.0406591 0.283203 0 0.321722 0 0.373081C0 0.377361 0 0.383781 0.00213995 0.388061L0.385192 2.71205C0.395891 2.76983 0.44511 2.81477 0.505029 2.81477H2.34111C2.38605 2.81477 2.42457 2.78267 2.43099 2.73987L2.81404 0.390201C2.8226 0.340982 2.78836 0.293903 2.73914 0.287483C2.73486 0.287483 2.72844 0.285343 2.72416 0.285343L0.092018 0.283203ZM1.7034 1.96307H1.11706L0.958699 1.13276H1.84678L1.7034 1.96307Z" fill="#2684FF"/>
<path d="M2.69218 1.13281H1.8469L1.70566 1.96311H1.11717L0.423828 2.78486C0.445228 2.80412 0.473047 2.81482 0.503006 2.81482H2.34123C2.38617 2.81482 2.42468 2.78272 2.4311 2.73992L2.69218 1.13281Z" fill="url(#paint0_linear_40_36)"/>
</g>
<defs>
<linearGradient id="paint0_linear_40_36" x1="2.88848" y1="1.36641" x2="1.48948" y2="2.45828" gradientUnits="userSpaceOnUse">
<stop offset="0.18" stop-color="#0052CC"/>
<stop offset="1" stop-color="#2684FF"/>
</linearGradient>
<clipPath id="clip0_40_36">
<rect width="20" height="2.856" fill="white"/>
</clipPath>
</defs>
</svg>
