<svg width="20" height="9" viewBox="0 0 20 9" fill="none" xmlns="http://www.w3.org/2000/svg">
<g clip-path="url(#clip0_40_30)">
<path d="M11.9519 2.90726C11.5147 2.90726 11.189 3.12194 11.189 3.63866C11.189 4.02796 11.4037 4.29827 11.9283 4.29827C12.3731 4.29827 12.6752 4.03616 12.6752 3.62249C12.6752 3.15374 12.4049 2.90726 11.9519 2.90726ZM11.0777 6.55577C10.9742 6.68272 10.8711 6.81772 10.8711 6.97686C10.8711 7.2946 11.2762 7.39022 11.8328 7.39022C12.2937 7.39022 12.9217 7.35788 12.9217 6.92929C12.9217 6.67452 12.6196 6.65882 12.2379 6.63491L11.0777 6.55577ZM13.4303 2.93124C13.5731 3.11405 13.7244 3.36851 13.7244 3.73405C13.7244 4.61624 13.0329 5.1328 12.0316 5.1328C11.777 5.1328 11.5465 5.10108 11.4037 5.0614L11.1412 5.48249L11.9201 5.53015C13.2952 5.6178 14.1056 5.65765 14.1056 6.71429C14.1056 7.62851 13.3031 8.14483 11.9201 8.14483C10.4815 8.14483 9.93311 7.77921 9.93311 7.1514C9.93311 6.79374 10.0921 6.60335 10.3703 6.34062C10.1079 6.22976 10.0206 6.03116 10.0206 5.8164C10.0206 5.6414 10.1079 5.48257 10.2512 5.3314C10.3942 5.18061 10.5531 5.02944 10.7439 4.8546C10.3545 4.66382 10.0603 4.25054 10.0603 3.66226C10.0603 2.74843 10.6644 2.12077 11.8802 2.12077C12.2221 2.12077 12.4288 2.15218 12.6116 2.20022H14.1616V2.87554L13.4303 2.93124ZM15.5599 1.48694C15.1068 1.48694 14.8445 1.22444 14.8445 0.77124C14.8445 0.318662 15.1067 0.0720215 15.5599 0.0720215C16.0208 0.0720215 16.2832 0.318662 16.2832 0.77124C16.2832 1.22444 16.0209 1.48694 15.5599 1.48694ZM14.5344 6.26327V5.63569L14.9399 5.58022C15.0512 5.56421 15.067 5.54046 15.067 5.42101V3.08429C15.067 2.9971 15.0433 2.94116 14.9635 2.91757L14.5344 2.7664L14.6218 2.1228H16.2672V5.42101C16.2672 5.54835 16.2748 5.56421 16.3944 5.5803L16.7997 5.63577V6.26327H14.5344ZM19.9428 5.95515C19.6009 6.12194 19.1002 6.27296 18.647 6.27296C17.7012 6.27296 17.3437 5.89186 17.3437 4.99327V2.91116C17.3437 2.86351 17.3437 2.83171 17.2799 2.83171H16.7237V2.12413C17.4233 2.04444 17.7012 1.69476 17.7887 0.828428H18.5438V1.95733C18.5438 2.0128 18.5438 2.03679 18.6075 2.03679H19.728V2.83155H18.5438V4.73101C18.5438 5.19991 18.6552 5.38257 19.0842 5.38257C19.307 5.38257 19.5372 5.3271 19.7279 5.25554L19.9428 5.95515Z" fill="#2F2707"/>
<path d="M8.16627 3.86947L4.53221 0.235644C4.48244 0.18586 4.42335 0.146369 4.35832 0.119425C4.29328 0.0924812 4.22358 0.0786133 4.15318 0.0786133C4.08279 0.0786133 4.01309 0.0924812 3.94805 0.119425C3.88302 0.146369 3.82393 0.18586 3.77416 0.235644L3.01955 0.990332L3.97682 1.94752C4.08934 1.90925 4.21033 1.90326 4.32608 1.93023C4.44183 1.9572 4.54771 2.01604 4.63174 2.1001C4.71621 2.18468 4.77519 2.29133 4.80194 2.40784C4.82868 2.52436 4.82212 2.64604 4.78299 2.759L5.70541 3.68158C5.92861 3.60471 6.18619 3.65447 6.36439 3.83299C6.42364 3.8922 6.47064 3.9625 6.50271 4.03988C6.53477 4.11726 6.55128 4.2002 6.55128 4.28396C6.55128 4.36773 6.53477 4.45067 6.50271 4.52805C6.47064 4.60543 6.42364 4.67573 6.36439 4.73494C6.26016 4.83928 6.12298 4.90426 5.97622 4.91884C5.82946 4.93342 5.68219 4.89668 5.55946 4.81489C5.43674 4.7331 5.34615 4.61131 5.30312 4.47024C5.26009 4.32917 5.26728 4.17755 5.32346 4.04119L4.46314 3.18088L4.46307 5.44494C4.52543 5.47578 4.5824 5.51651 4.63174 5.56557C4.69098 5.62479 4.73798 5.69511 4.77004 5.7725C4.8021 5.8499 4.8186 5.93285 4.8186 6.01662C4.8186 6.10039 4.8021 6.18334 4.77004 6.26073C4.73798 6.33813 4.69098 6.40845 4.63174 6.46768C4.38252 6.71689 3.97861 6.71689 3.72979 6.46768C3.65545 6.39339 3.60062 6.30189 3.57017 6.20131C3.53972 6.10072 3.5346 5.99418 3.55525 5.89113C3.57591 5.78809 3.62171 5.69175 3.68858 5.61068C3.75544 5.52961 3.84131 5.46631 3.93854 5.42642V3.14127C3.86032 3.10933 3.78933 3.06198 3.72979 3.00205C3.54104 2.81353 3.49564 2.53658 3.59236 2.30478L2.64877 1.36103L0.157051 3.8526C0.10726 3.90239 0.0677632 3.96149 0.0408163 4.02655C0.0138694 4.0916 0 4.16132 0 4.23174C0 4.30215 0.0138694 4.37187 0.0408163 4.43693C0.0677632 4.50198 0.10726 4.56109 0.157051 4.61088L3.79111 8.24478C3.89165 8.34529 4.02798 8.40175 4.17014 8.40175C4.31229 8.40175 4.44863 8.34529 4.54916 8.24478L8.16627 4.62783C8.26679 4.52725 8.32326 4.39086 8.32326 4.24865C8.32326 4.10645 8.26679 3.97006 8.16627 3.86947Z" fill="#DE4C36"/>
</g>
<defs>
<clipPath id="clip0_40_30">
<rect width="20" height="8.44" fill="white"/>
</clipPath>
</defs>
</svg>
