<svg width="20" height="20" viewBox="0 0 20 20" fill="none" xmlns="http://www.w3.org/2000/svg">
<g clip-path="url(#clip0_40_22)">
<path d="M9.91428 0.00561523C4.84976 0.00561523 5.16598 2.20189 5.16598 2.20189L5.1716 4.4773H10.0046V5.16044H3.25202C3.25202 5.16044 0.0112305 4.7929 0.0112305 9.90296C0.0112305 15.0132 2.83987 14.832 2.83987 14.832H4.52799V12.4606C4.52799 12.4606 4.43699 9.63197 7.31148 9.63197H12.1049C12.1049 9.63197 14.798 9.67549 14.798 7.02917V2.65365C14.798 2.65365 15.2071 0.00561523 9.91428 0.00561523ZM7.24938 1.53578C7.36358 1.53568 7.47669 1.5581 7.58222 1.60176C7.68776 1.64541 7.78364 1.70945 7.8644 1.79021C7.94516 1.87097 8.0092 1.96685 8.05285 2.07239C8.09651 2.17792 8.11893 2.29103 8.11883 2.40523C8.11893 2.51944 8.09651 2.63255 8.05285 2.73808C8.0092 2.84361 7.94516 2.9395 7.8644 3.02026C7.78364 3.10101 7.68776 3.16505 7.58222 3.20871C7.47669 3.25237 7.36358 3.27479 7.24938 3.27468C7.13517 3.27479 7.02206 3.25237 6.91653 3.20871C6.811 3.16505 6.71511 3.10101 6.63435 3.02026C6.5536 2.9395 6.48956 2.84361 6.4459 2.73808C6.40224 2.63255 6.37983 2.51944 6.37993 2.40523C6.37983 2.29103 6.40224 2.17792 6.4459 2.07239C6.48956 1.96685 6.5536 1.87097 6.63435 1.79021C6.71511 1.70945 6.811 1.64541 6.91653 1.60176C7.02206 1.5581 7.13517 1.53568 7.24938 1.53578Z" fill="url(#paint0_linear_40_22)"/>
<path d="M10.0582 19.8518C15.1227 19.8518 14.8065 17.6555 14.8065 17.6555L14.8008 15.3802H9.96777V14.697H16.7203C16.7203 14.697 19.9611 15.0646 19.9611 9.95436C19.9611 4.84422 17.1325 5.02545 17.1325 5.02545H15.4444V7.39671C15.4444 7.39671 15.5354 10.2254 12.6609 10.2254H7.86742C7.86742 10.2254 5.17432 10.1818 5.17432 12.8282V17.2038C5.17432 17.2038 4.76537 19.8518 10.0581 19.8518H10.0582ZM12.7231 18.3218C12.6089 18.3219 12.4957 18.2995 12.3902 18.2558C12.2847 18.2121 12.1888 18.1481 12.108 18.0674C12.0273 17.9866 11.9632 17.8907 11.9196 17.7852C11.8759 17.6796 11.8535 17.5665 11.8536 17.4523C11.8535 17.3381 11.8759 17.225 11.9196 17.1195C11.9632 17.0139 12.0273 16.918 12.108 16.8373C12.1888 16.7565 12.2847 16.6924 12.3902 16.6488C12.4957 16.6051 12.6088 16.5827 12.7231 16.5828C12.8373 16.5827 12.9504 16.6051 13.0559 16.6488C13.1614 16.6924 13.2573 16.7565 13.3381 16.8372C13.4188 16.918 13.4829 17.0139 13.5265 17.1194C13.5702 17.2249 13.5926 17.338 13.5925 17.4523C13.5926 17.5665 13.5702 17.6796 13.5265 17.7851C13.4829 17.8906 13.4188 17.9865 13.3381 18.0673C13.2573 18.148 13.1614 18.2121 13.0559 18.2557C12.9504 18.2994 12.8373 18.3219 12.7231 18.3218Z" fill="url(#paint1_linear_40_22)"/>
</g>
<defs>
<linearGradient id="paint0_linear_40_22" x1="191.729" y1="178.509" x2="1180.38" y2="1157.3" gradientUnits="userSpaceOnUse">
<stop stop-color="#387EB8"/>
<stop offset="1" stop-color="#366994"/>
</linearGradient>
<linearGradient id="paint1_linear_40_22" x1="288.149" y1="310.152" x2="1349.85" y2="1313.81" gradientUnits="userSpaceOnUse">
<stop stop-color="#FFE052"/>
<stop offset="1" stop-color="#FFC331"/>
</linearGradient>
<clipPath id="clip0_40_22">
<rect width="20" height="19.92" fill="white"/>
</clipPath>
</defs>
</svg>
