<svg width="20" height="20" viewBox="0 0 20 20" fill="none" xmlns="http://www.w3.org/2000/svg">
<path d="M18.1833 2.14233H9.58398C9.58398 3.17186 9.99296 4.15923 10.721 4.88722C11.4489 5.61521 12.4363 6.02418 13.4658 6.02418H15.0499V7.55365C15.0513 9.69558 16.7873 11.4317 18.9293 11.4331V2.88832C18.9293 2.47644 18.5954 2.14233 18.1833 2.14233Z" fill="#2684FF"/>
<path d="M13.9283 6.42725H5.3291C5.33043 8.56918 7.06643 10.3052 9.20843 10.3066H10.7925V11.841C10.7952 13.9829 12.5324 15.7178 14.6744 15.7178V7.17337C14.6744 6.76135 14.3403 6.42725 13.9283 6.42725Z" fill="url(#paint0_linear_40_43)"/>
<path d="M9.67057 10.7095H1.07129C1.07129 12.8534 2.80932 14.5913 4.95314 14.5913H6.54219V16.1207C6.54359 18.2607 8.27658 19.996 10.4166 20.0001V11.4555C10.4166 11.0435 10.0826 10.7095 9.67057 10.7095Z" fill="url(#paint1_linear_40_43)"/>
<defs>
<linearGradient id="paint0_linear_40_43" x1="2344.42" y1="10.7046" x2="1416.73" y2="1094.84" gradientUnits="userSpaceOnUse">
<stop offset="0.18" stop-color="#0052CC"/>
<stop offset="1" stop-color="#2684FF"/>
</linearGradient>
<linearGradient id="paint1_linear_40_43" x1="2403.03" y1="22.7975" x2="1329.93" y2="1205.25" gradientUnits="userSpaceOnUse">
<stop offset="0.18" stop-color="#0052CC"/>
<stop offset="1" stop-color="#2684FF"/>
</linearGradient>
</defs>
</svg>
