<svg width="20" height="20" viewBox="0 0 20 20" fill="black" xmlns="http://www.w3.org/2000/svg">
<path d="M7.23737 7.31815C7.13661 7.4389 7.07582 7.59629 7.07582 7.767C7.07582 7.83778 7.08581 7.90523 7.1058 7.97019L7.10413 7.96519C7.14577 8.19753 7.32148 8.3799 7.54632 8.43069L7.55049 8.43153C7.85444 8.464 8.20669 8.48316 8.5631 8.48316C8.69384 8.48316 8.82292 8.48066 8.95199 8.47566L8.93367 8.4765H10.0495C10.167 8.45734 10.2719 8.4257 10.371 8.38406L10.3618 8.38739C10.55 8.25499 10.6708 8.03847 10.6708 7.79448C10.6708 7.78282 10.6708 7.77116 10.6699 7.7595V7.76117C10.6708 7.75284 10.6708 7.74202 10.6708 7.73202C10.6708 7.48803 10.5259 7.27734 10.3169 7.18241L10.3127 7.18075C10.2286 7.12495 10.1245 7.09164 10.0129 7.09164C10.0096 7.09164 10.0062 7.09164 10.0029 7.09164H8.88787C8.20391 7.09164 7.78754 7.09886 7.63876 7.11329C7.48053 7.13161 7.34147 7.2049 7.23904 7.31315L7.23737 7.31815ZM10.0046 11.5085C8.81431 11.5085 8.09288 11.5235 7.84028 11.5535C7.64958 11.5601 7.47304 11.6176 7.32315 11.7117L7.32731 11.7092C7.23821 11.7858 7.16909 11.8832 7.12912 11.994L7.12745 11.999C7.09664 12.0739 7.07832 12.1614 7.07832 12.2522C7.07832 12.2805 7.07999 12.3079 7.08332 12.3354V12.3321C7.1033 12.4512 7.14994 12.5569 7.21822 12.646L7.21656 12.6444C7.28817 12.7451 7.38644 12.8226 7.50219 12.8659L7.50635 12.8676C8.0443 12.9175 8.67053 12.9458 9.30258 12.9458C9.5499 12.9458 9.79556 12.9417 10.0404 12.9325L10.0046 12.9333L12.1464 12.8884L12.5461 12.8434C12.7426 12.7368 12.8792 12.5419 12.9034 12.3129V12.3096C12.9084 12.2788 12.9117 12.2438 12.9117 12.208C12.9117 12.0148 12.8218 11.8416 12.681 11.73L12.6802 11.7292C12.5353 11.6334 12.3579 11.5751 12.1672 11.5735C11.9451 11.559 11.2229 11.5518 10.0021 11.5518L10.0046 11.5085ZM19.955 17.3552C19.985 17.0871 20 14.5436 20 9.72478V3.92722C19.97 3.1239 19.9403 2.58844 19.9109 2.32086C19.8809 2.13599 19.8176 1.9711 19.7285 1.82371L19.7319 1.82954L19.6869 1.65133C19.2655 0.81942 18.4894 0.219844 17.5634 0.0474664L17.5451 0.0449681C17.3674 0.0149894 14.8314 0 9.93713 0C5.04282 0 2.52182 0.0149894 2.37415 0.0449681C1.80705 0.189865 1.3174 0.468835 0.92268 0.846067L0.923513 0.845235C0.530458 1.22497 0.241496 1.70879 0.101595 2.2534L0.097431 2.27422C0.035808 2.56485 0 2.89878 0 3.24104C0 3.34013 0.00333097 3.43756 0.00916018 3.535L0.00832743 3.52167V16.5083C0.0174876 16.9597 0.0499646 17.3927 0.104093 17.8182L0.097431 17.7574C0.187367 18.1213 0.333097 18.4403 0.527959 18.7242L0.521297 18.7142C0.726985 19.0065 0.979306 19.2505 1.2691 19.4412L1.27993 19.4479C1.56722 19.6436 1.90282 19.7968 2.26173 19.8892L2.28422 19.8942C2.66395 19.9417 3.1128 19.9734 3.56747 19.9808H3.5783H16.43C16.8814 19.9717 17.3144 19.9392 17.7399 19.8851L17.6791 19.8917C18.3029 19.7493 18.8367 19.4271 19.2389 18.9841L19.2414 18.9816C19.6378 18.5502 19.8984 17.9881 19.9542 17.3677L19.955 17.3569V17.3552ZM16.1627 9.05442C16.1927 9.23207 16.1999 9.9238 16.1844 11.1296C16.1869 11.2329 16.1885 11.3553 16.1885 11.4777C16.1885 12.1023 16.1461 12.7168 16.0653 13.3189L16.0728 13.2489C15.8987 13.9335 15.5565 14.5222 15.091 14.9894C14.5205 15.6056 13.7486 16.027 12.8792 16.1477L12.8601 16.1502C12.5936 16.1802 11.5821 16.1874 9.82554 16.1719C8.06901 16.1563 7.0872 16.1341 6.88013 16.1053C6.19395 15.9612 5.59687 15.6472 5.11471 15.2092L5.11804 15.2117C4.59758 14.7712 4.20369 14.1966 3.98801 13.5404L3.98051 13.5146C3.88558 13.2081 3.82895 12.8559 3.82479 12.4903V12.4878C3.81036 12.0714 3.80314 11.1493 3.80314 9.72145C3.83312 7.996 3.86282 7.0439 3.89224 6.86514C4.06545 6.21227 4.36607 5.64433 4.76746 5.16467L4.76163 5.17134C5.16801 4.69667 5.68597 4.32943 6.27555 4.10876L6.30137 4.10043C6.60116 3.96053 6.94924 3.86559 7.31648 3.83478L7.32814 3.83395C7.68345 3.80397 8.33771 3.78898 9.29092 3.78898C10.3024 3.81896 10.8826 3.84866 11.0314 3.87809C11.7467 4.11958 12.3587 4.50181 12.8617 4.99479L12.8609 4.99396C13.5337 5.63684 13.9576 6.53537 13.9768 7.53383V7.53716C13.9751 7.56048 13.9743 7.58713 13.9743 7.61461C13.9743 7.77033 13.9992 7.92022 14.0459 8.06012L14.0434 8.05013C14.0967 8.16338 14.1816 8.25415 14.2857 8.31494L14.2882 8.31661C14.3756 8.37906 14.4831 8.41987 14.5988 8.4282H14.6005L15.1334 8.47316C15.3724 8.47899 15.6014 8.51147 15.8213 8.56726L15.8005 8.56227C15.9878 8.6622 16.1219 8.83874 16.1619 9.04942L16.1627 9.05359V9.05442Z" fill="white"/>
</svg>
