<svg width="20" height="20" viewBox="0 0 20 20" fill="black" xmlns="http://www.w3.org/2000/svg">
<g clip-path="url(#clip0_40_33)">
<path d="M9.97646 19.9868C15.3642 19.9868 19.7317 15.5156 19.7317 10C19.7317 4.48443 15.3642 0.0131836 9.97646 0.0131836C4.58877 0.0131836 0.221191 4.48443 0.221191 10C0.221191 15.5156 4.58877 19.9868 9.97646 19.9868Z" fill="white"/>
<path d="M9.9764 0.0507812C4.46743 0.0507812 0 4.51661 0 10.0264C0 14.4345 2.85864 18.1737 6.82212 19.4924C7.32046 19.5846 7.50393 19.2761 7.50393 19.0125C7.50393 18.7746 7.49432 17.9886 7.49031 17.1554C4.715 17.7586 4.12933 15.9784 4.12933 15.9784C3.67585 14.8255 3.02128 14.5186 3.02128 14.5186C2.11594 13.8993 3.08938 13.9121 3.08938 13.9121C4.09087 13.9826 4.61885 14.9401 4.61885 14.9401C5.50897 16.4655 6.95271 16.0241 7.52156 15.7693C7.61129 15.1243 7.86927 14.6845 8.1553 14.4353C5.93921 14.1829 3.61016 13.3273 3.61016 9.50481C3.61016 8.41599 3.99953 7.52587 4.63808 6.82723C4.53473 6.57646 4.19342 5.56216 4.73502 4.18812C4.73502 4.18812 5.57307 3.91972 7.4791 5.21044C8.27468 4.98931 9.12794 4.87874 9.9764 4.87474C10.8241 4.87874 11.6781 4.98931 12.4753 5.21044C14.3797 3.91972 15.2162 4.18812 15.2162 4.18812C15.7594 5.56216 15.4173 6.57726 15.3139 6.82803C15.9533 7.52667 16.3402 8.41679 16.3402 9.50561C16.3402 13.3369 14.0064 14.1813 11.7847 14.4281C12.1428 14.7374 12.4617 15.3447 12.4617 16.2756C12.4617 17.6104 12.4505 18.6848 12.4505 19.0133C12.4505 19.2785 12.6299 19.5902 13.1355 19.4916C17.0974 18.1713 19.952 14.4329 19.952 10.0264C19.952 4.51661 15.4854 0.0507812 9.9764 0.0507812Z" fill="#5C6BC0"/>
</g>
<defs>
<clipPath id="clip0_40_33">
<rect width="19.952" height="20" fill="white"/>
</clipPath>
</defs>
</svg>
