<svg width="20" height="20" viewBox="0 0 20 20" fill="none" xmlns="http://www.w3.org/2000/svg">
<g clip-path="url(#clip0_40_25)">
<path d="M0.571657 7.02083C0.571657 7.02083 0.0982143 6.67956 0.666346 6.22387L1.99001 5.04026C1.99001 5.04026 2.36877 4.64178 2.76922 4.98897L14.9841 14.2369V18.6715C14.9841 18.6715 14.9781 19.3678 14.0845 19.2909L0.571657 7.02083Z" fill="#2489CA"/>
<path d="M3.71992 9.87915L0.571521 12.7415C0.571521 12.7415 0.248001 12.9822 0.571521 13.4122L2.03328 14.7418C2.03328 14.7418 2.38047 15.1146 2.89336 14.6905L6.23114 12.1596L3.71992 9.87915Z" fill="#1070B3"/>
<path d="M9.24718 9.90279L15.0212 5.49385L14.9837 1.08294C14.9837 1.08294 14.7372 0.120269 13.9145 0.62133L6.23096 7.61448L9.24718 9.90279Z" fill="#0877B9"/>
<path d="M14.0842 19.2968C14.4196 19.6401 14.8259 19.5276 14.8259 19.5276L19.3256 17.3103C19.9016 16.9178 19.8208 16.4305 19.8208 16.4305V3.18989C19.8208 2.60795 19.225 2.40674 19.225 2.40674L15.325 0.526776C14.4728 7.04809e-05 13.9146 0.621465 13.9146 0.621465C13.9146 0.621465 14.6326 0.104623 14.9837 1.08307V18.5906C14.9837 18.7109 14.9581 18.8293 14.9068 18.9358C14.8042 19.143 14.5813 19.3363 14.0467 19.2554L14.0842 19.2968Z" fill="#3C99D4"/>
</g>
<defs>
<clipPath id="clip0_40_25">
<rect width="20" height="19.64" fill="white"/>
</clipPath>
</defs>
</svg>
