<svg width="20" height="20" viewBox="0 0 20 20" fill="none" xmlns="http://www.w3.org/2000/svg">
<g clip-path="url(#clip0_40_15)">
<path d="M5.51043 5.445L4.21777 4.15234L4.22324 13.4961L4.23871 13.9328C4.24512 14.1383 4.28324 14.3702 4.34684 14.6105L14.5893 18.2222L17.1496 17.0878L17.1506 17.0847L5.51043 5.445Z" fill="#00D2B8"/>
<path d="M4.34691 14.6106L4.34754 14.6112C4.34691 14.607 4.34473 14.6023 4.34473 14.5979C4.34473 14.6023 4.34535 14.6063 4.34691 14.6106ZM17.1497 17.0879L14.5894 18.2223L4.34754 14.6112C4.54316 15.3618 4.97629 16.2056 5.44238 16.667L8.78488 19.9904L16.2169 20.0001L17.1507 17.0848L17.1497 17.0879Z" fill="#55DDCA"/>
<path d="M0.236815 10.1653C-0.0941226 10.5186 0.0702524 11.2473 0.603065 11.7842L2.90135 14.1016L4.34666 14.6105C4.28306 14.3702 4.24494 14.1383 4.23853 13.9328L4.22306 13.4961L4.2176 4.15234L0.236815 10.1653Z" fill="#0081C6"/>
<path d="M14.6734 4.27227C14.4331 4.21086 14.2026 4.17289 13.9937 4.16633L13.5321 4.15039L4.21777 4.15164L17.1518 17.0846H17.1529L18.2889 14.5218L14.6734 4.27227Z" fill="#0079B3"/>
<path d="M14.6616 4.26978C14.6666 4.27087 14.6705 4.27228 14.6738 4.27274L14.6733 4.27228C14.6705 4.27087 14.6666 4.27087 14.6616 4.26978ZM16.7279 5.36962C16.2585 4.89634 15.4258 4.46618 14.6738 4.27274L18.2888 14.5218L17.1529 17.0846H17.1518L19.9277 16.1981L19.9337 8.58743L16.7279 5.36962Z" fill="#00A4E4"/>
<path d="M14.167 2.83571L11.8503 0.536022C11.3145 0.00524089 10.5854 -0.159915 10.2331 0.170085L4.21777 4.15165L13.5321 4.1504L13.9937 4.16634C14.2026 4.1729 14.4331 4.21087 14.6734 4.27227L14.167 2.83571Z" fill="#00D2B8"/>
</g>
<defs>
<clipPath id="clip0_40_15">
<rect width="20" height="20" fill="white"/>
</clipPath>
</defs>
</svg>
