<svg width="20" height="13" viewBox="0 0 20 13" fill="none" xmlns="http://www.w3.org/2000/svg">
<path d="M4.71916 3.74068H8.49134V4.04049H5.06494V6.29702H8.28701V6.59684H5.06494V9.07429H8.53063V9.3741H4.71916V3.74068ZM8.82927 3.74068H9.23006L11.0061 6.21812L12.8215 3.74068L15.2907 0.59375L11.234 6.47849L13.3245 9.3741H12.9079L11.0061 6.73886L9.09646 9.3741H8.68781L10.7939 6.47849L8.82927 3.74068ZM13.4738 4.04049V3.74068H17.7725V4.04049H15.7921V9.3741H15.4463V4.04049H13.4738ZM0 3.74068H0.432229L6.39242 12.6595L3.92936 9.3741L0.361501 4.16673L0.345783 9.3741H0V3.74068ZM17.7376 8.98381C17.667 8.98381 17.614 8.92907 17.614 8.85833C17.614 8.78759 17.667 8.73286 17.7376 8.73286C17.8091 8.73286 17.8613 8.78759 17.8613 8.85833C17.8613 8.92907 17.8091 8.98381 17.7376 8.98381ZM18.0774 8.6537H18.2624C18.265 8.75391 18.3381 8.82128 18.4458 8.82128C18.5661 8.82128 18.6342 8.74886 18.6342 8.61327V7.75431H18.8226V8.61412C18.8226 8.85833 18.6813 8.99897 18.4475 8.99897C18.228 8.99897 18.0774 8.86254 18.0774 8.6537ZM19.069 8.64275H19.2557C19.2717 8.75812 19.3844 8.83138 19.5467 8.83138C19.6981 8.83138 19.8091 8.75307 19.8091 8.64527C19.8091 8.55264 19.7384 8.49706 19.5778 8.45917L19.4214 8.42127C19.2019 8.3699 19.1018 8.26379 19.1018 8.08526C19.1018 7.86884 19.2784 7.72484 19.5433 7.72484C19.7897 7.72484 19.9697 7.86884 19.9807 8.07347H19.7973C19.7797 7.96147 19.6821 7.89158 19.5408 7.89158C19.3919 7.89158 19.2927 7.96316 19.2927 8.07263C19.2927 8.15937 19.3566 8.20906 19.5147 8.24611L19.6485 8.27895C19.8974 8.33706 20 8.43811 20 8.62085C20 8.85328 19.82 8.99897 19.5324 8.99897C19.2633 8.99897 19.0824 8.86002 19.069 8.64275Z" fill="black"/>
</svg>
