<svg width="20" height="20" viewBox="0 0 20 20" fill="none" xmlns="http://www.w3.org/2000/svg">
<path d="M16.0414 7.05936C15.8417 6.99113 15.6405 6.92759 15.4379 6.86873C15.4715 6.73201 15.5025 6.59452 15.5309 6.45623C15.9879 4.23358 15.6891 2.44295 14.6691 1.8535C13.6926 1.28787 12.091 1.87733 10.4754 3.2867C10.3165 3.42577 10.1609 3.56899 10.0086 3.71639C9.90703 3.61847 9.80287 3.52264 9.69609 3.42889C8.00274 1.92186 6.30547 1.28709 5.28672 1.8785C4.31016 2.4453 4.01992 4.1285 4.43125 6.23514C4.4724 6.44347 4.51862 6.6509 4.56992 6.85741C4.32969 6.92577 4.09766 6.99881 3.87578 7.07616C1.89297 7.76951 0.625 8.85662 0.625 9.98397C0.625 11.1488 1.98594 12.3168 4.05352 13.025C4.22122 13.082 4.3905 13.135 4.56133 13.184C4.50586 13.4051 4.45677 13.6286 4.41406 13.8547C4.02344 15.925 4.32813 17.5683 5.30273 18.1316C6.30938 18.7133 7.99805 18.1156 9.64414 16.6742C9.77435 16.5601 9.90456 16.4397 10.0348 16.3129C10.1994 16.472 10.3686 16.6264 10.5426 16.7762C12.1363 18.1504 13.7102 18.7055 14.6832 18.1406C15.6891 17.557 16.016 15.7914 15.5914 13.6433C15.5589 13.4793 15.5214 13.3118 15.4789 13.141C15.5977 13.1058 15.7139 13.0695 15.8277 13.032C17.9762 12.3183 19.3758 11.1644 19.3758 9.98514C19.375 8.85233 18.0664 7.75819 16.0414 7.05936ZM11.0023 3.89217C12.3863 2.68475 13.6801 2.20819 14.2699 2.54881C14.8977 2.9117 15.1418 4.37498 14.7473 6.29412C14.7212 6.41912 14.6931 6.54373 14.6629 6.66795C13.837 6.48009 12.9994 6.3475 12.1559 6.27108C11.6729 5.57533 11.1434 4.91301 10.5711 4.28866C10.7112 4.15272 10.8547 4.02056 11.0016 3.89217H11.0023ZM6.16133 10.9472C6.33086 11.2754 6.50807 11.5995 6.69297 11.9195C6.88125 12.2461 7.07747 12.5678 7.28164 12.8848C6.7012 12.8216 6.12439 12.7287 5.55352 12.6062C5.71914 12.0703 5.92305 11.5137 6.16133 10.9472ZM6.16133 9.05936C5.92695 8.50506 5.72852 7.95975 5.56563 7.43319C6.10078 7.31326 6.67109 7.21522 7.26563 7.141C7.06641 7.45194 6.87474 7.76743 6.69063 8.08748C6.50651 8.40754 6.32969 8.73149 6.16016 9.05936H6.16133ZM6.58711 10.0035C6.83399 9.48866 7.09987 8.98371 7.38477 8.48866C7.6694 7.99386 7.9724 7.5104 8.29375 7.03826C8.85156 6.99608 9.42344 6.97381 10.0012 6.97381C10.5789 6.97381 11.1543 6.99608 11.7117 7.03866C12.0297 7.50975 12.3309 7.99152 12.6152 8.48397C12.8996 8.97642 13.169 9.47902 13.4234 9.99178C13.1724 10.5084 12.9036 11.0155 12.6172 11.5129C12.3331 12.0077 12.0336 12.4926 11.7188 12.9676C11.1621 13.0066 10.5859 13.0281 10 13.0281C9.41406 13.0281 8.84883 13.0098 8.30234 12.9742C7.97865 12.5005 7.67318 12.015 7.38594 11.5176C7.0987 11.0202 6.83203 10.5155 6.58594 10.0035H6.58711ZM13.3105 11.914C13.4994 11.5864 13.6806 11.2545 13.8543 10.9183C14.0924 11.4582 14.3026 12.01 14.484 12.5715C13.9064 12.7015 13.3224 12.8013 12.7344 12.8703C12.9328 12.5555 13.1249 12.2367 13.3105 11.914ZM13.8465 9.05975C13.6736 8.73032 13.4938 8.4048 13.307 8.08319C13.1247 7.766 12.9348 7.45272 12.7371 7.14334C13.3352 7.21912 13.909 7.31991 14.4469 7.44295C14.2739 7.99159 14.0736 8.53121 13.8465 9.05975ZM10.009 4.86248C10.399 5.2887 10.7674 5.73431 11.1125 6.19764C10.3742 6.16248 9.63542 6.16248 8.89609 6.19764C9.26055 5.71561 9.6336 5.26834 10.009 4.86248ZM5.68984 2.57264C6.31719 2.20858 7.7043 2.72889 9.16641 4.0285C9.25977 4.1117 9.35391 4.19881 9.44766 4.28905C8.87241 4.91331 8.33921 5.57505 7.85156 6.26991C7.00986 6.34574 6.17399 6.47623 5.34922 6.66053C5.30156 6.46886 5.25859 6.2759 5.22031 6.08162C4.8668 4.27577 5.10078 2.91444 5.68984 2.57264ZM4.77539 12.4105C4.61914 12.366 4.46484 12.3177 4.3125 12.2656C3.39844 11.9531 2.64336 11.5453 2.125 11.1012C1.66094 10.7031 1.42578 10.3058 1.42578 9.98397C1.42578 9.29998 2.44375 8.42733 4.14141 7.83553C4.35469 7.76131 4.56979 7.69347 4.78672 7.63202C5.03885 8.44229 5.3442 9.23503 5.70078 10.0051C5.33995 10.7857 5.03082 11.5893 4.77539 12.4105ZM9.11641 16.0695C8.38867 16.707 7.65977 17.159 7.01719 17.3867C6.43984 17.591 5.98008 17.5969 5.70234 17.4363C5.11094 17.0945 4.86484 15.7746 5.20039 14.0043C5.24024 13.7959 5.28581 13.5876 5.33711 13.3793C6.17013 13.5587 7.0144 13.6813 7.86406 13.7461C8.35647 14.4446 8.89408 15.11 9.47344 15.7383C9.35703 15.8527 9.23789 15.9629 9.11641 16.0695ZM10.0313 15.1625C9.65156 14.7519 9.27266 14.2976 8.90313 13.8094C9.26224 13.8234 9.62787 13.8305 10 13.8305C10.382 13.8305 10.7602 13.8223 11.1328 13.8055C10.7889 14.2762 10.4212 14.7291 10.0313 15.1625ZM14.8953 16.2793C14.7836 16.8824 14.559 17.2847 14.2813 17.4457C13.6902 17.7887 12.4266 17.343 11.0641 16.1676C10.9078 16.0332 10.7516 15.889 10.5926 15.7379C11.1607 15.1072 11.6857 14.439 12.1641 13.7379C13.0184 13.6655 13.8668 13.5343 14.7031 13.3453C14.7414 13.5 14.7753 13.6515 14.8047 13.8C14.9926 14.7492 15.0195 15.6078 14.8953 16.2793ZM15.575 12.2699C15.4727 12.3039 15.3672 12.3367 15.2602 12.3687C14.9979 11.5546 14.6806 10.7593 14.3105 9.98826C14.6668 9.22749 14.9716 8.4437 15.223 7.64217C15.4148 7.69803 15.6012 7.75662 15.7805 7.81873C17.5156 8.41717 18.5742 9.30311 18.5742 9.98397C18.5742 10.7105 17.4309 11.6535 15.575 12.2699Z" fill="black"/>
<path d="M10 11.6621C10.3325 11.6632 10.6578 11.5656 10.9347 11.3817C11.2116 11.1978 11.4278 10.9358 11.5558 10.629C11.6837 10.3222 11.7178 9.98428 11.6536 9.65809C11.5894 9.3319 11.4298 9.0321 11.1952 8.79664C10.9605 8.56119 10.6612 8.40067 10.3352 8.33541C10.0092 8.27016 9.67122 8.3031 9.36398 8.43007C9.05674 8.55704 8.79408 8.77232 8.60927 9.04866C8.42446 9.325 8.32581 9.64997 8.32581 9.98241C8.32535 10.2027 8.3683 10.4208 8.4522 10.6245C8.53611 10.8281 8.65933 11.0132 8.81481 11.1692C8.9703 11.3252 9.15501 11.449 9.35837 11.5336C9.56174 11.6182 9.77978 11.6618 10 11.6621Z" fill="black"/>
</svg>
